<?xml version="1.0" encoding="utf-8"?>
<svg viewBox="20.309 222.094 919.381 515.813" width="919.381" height="515.813" xmlns="http://www.w3.org/2000/svg">
    <defs>
        <linearGradient id="id51" gradientUnits="userSpaceOnUse" x1="704.725" y1="736.439" x2="659.224" y2="223.039">
            <stop offset="0" style="stop-opacity:1; stop-color:#6560FF"/>
            <stop offset="1" style="stop-opacity:1; stop-color:#E006FF"/>
        </linearGradient>
        <linearGradient id="id50" gradientUnits="userSpaceOnUse" x1="300.725" y1="736.839" x2="255.224" y2="223.439">
            <stop offset="0" style="stop-opacity:1; stop-color:#6461FF"/>
            <stop offset="1" style="stop-opacity:1; stop-color:#E204FF"/>
        </linearGradient>
        <style type="text/css">

            .fil52 {fill:#FEFEFE;fill-rule:nonzero}
            .fil51 {fill:white;fill-rule:nonzero;fill-opacity:0.250980}
            .fil53 {fill:url(#id50);fill-rule:nonzero}
            .fil50 {fill:url(#id51);fill-rule:nonzero}

        </style>
    </defs>
    <g id="Layer_x0005_1">
        <g id="Layer_x0005_1_0">
            <path class="fil50"
                  d="M681.986 222.094c142.326,0 257.704,115.378 257.704,257.705 0,142.327 -115.378,257.705 -257.704,257.705 -142.328,0 -257.706,-115.378 -257.706,-257.705 0,-142.327 115.378,-257.705 257.706,-257.705z"/>
            <path class="fil51"
                  d="M681.984 302.646c97.839,0 177.154,79.314 177.154,177.152 0,97.839 -79.315,177.153 -177.154,177.153 -97.838,0 -177.151,-79.314 -177.151,-177.153 0,-97.838 79.313,-177.152 177.151,-177.152z"/>
            <path class="fil52"
                  d="M557.306 558.282l116.153 0 0 -30.566 -63.614 0 0 -1.007 18.771 -17.297c34.018,-29.667 42.937,-44.771 42.937,-62.751 0,-28.301 -23.087,-47.432 -58.723,-47.432 -34.703,0 -57.897,19.994 -57.825,51.927l35.925 0c0,-14.168 8.739,-22.367 21.756,-22.367 12.802,0 22.08,7.911 22.08,20.857 0,11.723 -7.372,19.67 -20.247,31.249l-57.213 50.093 0 27.294 0 0zm202.565 3.848c41.102,0.072 66.311,-30.279 66.382,-82.062 0.073,-51.495 -25.28,-80.839 -66.382,-80.839 -41.066,0 -66.167,29.272 -66.274,80.839 -0.144,51.639 25.208,82.062 66.274,82.062zm0 -31.034c-16.289,0 -27.402,-16.398 -27.258,-51.028 0.073,-33.946 11.04,-50.057 27.258,-50.057 16.326,0 27.295,16.111 27.366,50.057 0.071,34.63 -10.967,51.028 -27.366,51.028z"/>
            <path class="fil53"
                  d="M278.014 222.497c142.327,0 257.706,115.378 257.706,257.705 0,142.327 -115.379,257.705 -257.706,257.705 -142.327,0 -257.705,-115.378 -257.705,-257.705 0,-142.327 115.378,-257.705 257.705,-257.705z"/>
            <path class="fil51"
                  d="M278.013 303.049c97.839,0 177.154,79.314 177.154,177.152 0,97.839 -79.315,177.153 -177.154,177.153 -97.838,0 -177.151,-79.314 -177.151,-177.153 0,-97.838 79.313,-177.152 177.151,-177.152z"/>
            <path class="fil52"
                  d="M165.406 563.524l120.468 0 0 41.375 57.605 0 0 -41.375 29.832 0 0 -47.49 -29.832 0 0 -160.53 -75.891 0 -102.182 160.987 0 47.033 0 0zm121.668 -47.49l-61.72 0 0 -2.001 59.777 -94.694 1.943 0 0 96.695 0 0z"/>
        </g>
    </g>
</svg>