<?xml version="1.0" encoding="utf-8"?>
<svg viewBox="20.309 222.094 919.381 515.813" width="919.381" height="515.813" xmlns="http://www.w3.org/2000/svg">
    <defs>
        <style type="text/css">

            .fil72 {fill:#FEFEFE;fill-rule:nonzero}
            .fil71 {fill:white;fill-rule:nonzero;fill-opacity:0.250980}
            .fil73 {fill:url(#id70);fill-rule:nonzero}
            .fil70 {fill:url(#id71);fill-rule:nonzero}

        </style>
        <linearGradient gradientUnits="userSpaceOnUse" x1="278.014" y1="222.497" x2="278.014" y2="737.907"
                        id="gradient-72">
            <stop offset="0" style="stop-color: rgb(255, 155, 4);"/>
            <stop offset="1" style="stop-color: rgb(255, 89, 115);"/>
        </linearGradient>
        <linearGradient gradientUnits="userSpaceOnUse" x1="681.985" y1="222.094" x2="681.985" y2="737.504"
                        id="gradient-71">
            <stop offset="0" style="stop-color: rgb(255, 155, 4);"/>
            <stop offset="1" style="stop-color: rgb(255, 89, 115);"/>
        </linearGradient>
    </defs>
    <g id="Layer_x0007_1">
        <g id="Layer_x0007_1_0">
            <path class="fil70"
                  d="M681.986 222.094c142.326,0 257.704,115.378 257.704,257.705 0,142.327 -115.378,257.705 -257.704,257.705 -142.328,0 -257.706,-115.378 -257.706,-257.705 0,-142.327 115.378,-257.705 257.706,-257.705z"
                  style="fill: url(#gradient-71);"/>
            <path class="fil71"
                  d="M681.984 302.646c97.839,0 177.154,79.314 177.154,177.152 0,97.839 -79.315,177.153 -177.154,177.153 -97.838,0 -177.151,-79.314 -177.151,-177.153 0,-97.838 79.313,-177.152 177.151,-177.152z"/>
            <path class="fil72"
                  d="M553.364 532.247l75.806 0 0 26.035 36.248 0 0 -26.035 18.771 0 0 -29.883 -18.771 0 0 -101.013 -47.757 0 -64.297 101.3 0 29.596 0 0zm76.56 -29.883l-38.837 0 0 -1.259 37.614 -59.586 1.223 0 0 60.845 0 0zm134.241 58.076c36.571,0 60.916,-23.015 60.916,-55.343 0,-29.883 -20.821,-51.172 -49.05,-51.172 -14.852,0 -27.186,6.365 -32.4,15.032l-0.899 0 3.597 -37.04 69.474 0 0 -30.566 -100.653 0 -6.831 84.615 33.479 6.257c4.207,-7.048 12.945,-11.4 22.15,-11.328 14.384,0 24.67,10.177 24.598,25.28 0.072,15.032 -10.034,25.137 -24.381,25.137 -12.191,0 -22.224,-7.588 -22.763,-19.167l-36.751 0c0.43,28.193 25.208,48.295 59.514,48.295l0 0z"/>
            <path class="fil73"
                  d="M278.014 222.497c142.327,0 257.706,115.378 257.706,257.705 0,142.327 -115.379,257.705 -257.706,257.705 -142.327,0 -257.705,-115.378 -257.705,-257.705 0,-142.327 115.378,-257.705 257.705,-257.705z"
                  style="fill: url(#gradient-72);"/>
            <path class="fil71"
                  d="M278.013 303.049c97.839,0 177.154,79.314 177.154,177.152 0,97.839 -79.315,177.153 -177.154,177.153 -97.838,0 -177.151,-79.314 -177.151,-177.153 0,-97.838 79.313,-177.152 177.151,-177.152z"/>
            <path class="fil72"
                  d="M280.444 608.328c57.205,0.114 96.695,-35.832 96.581,-88.065 0.114,-46.119 -31.431,-79.722 -76.122,-79.722 -27.888,0 -52.975,13.487 -63.32,35.889l-1.6 0c0.285,-44.461 15.144,-72.921 45.661,-72.921 16.574,0 29.717,8.286 33.261,24.116l59.319 0c-4.629,-41.889 -40.175,-75.492 -92.58,-75.492 -63.549,0 -104.81,50.004 -105.038,132.355 -0.172,90.923 49.033,123.726 103.838,123.84l0 0zm-0.342 -46.29c-22.06,0 -38.405,-17.316 -38.518,-39.718 0.285,-22.516 16.687,-39.775 38.631,-39.775 22.289,0 38.462,17.03 38.347,39.661 0.115,22.802 -16.173,39.832 -38.46,39.832z"/>
        </g>
    </g>
</svg>