<?xml version="1.0" encoding="utf-8"?>
<svg viewBox="14.898 216.907 919.381 515.814" width="919.381" height="515.814" xmlns="http://www.w3.org/2000/svg"
     xmlns:xlink="http://www.w3.org/1999/xlink">
    <defs>
        <linearGradient id="id61" gradientUnits="userSpaceOnUse" x1="699.304" y1="731.339" x2="653.793" y2="217.939"
                        xlink:href="#id60"/>
        <linearGradient id="id60" gradientUnits="userSpaceOnUse" x1="295.333" y1="731.741" x2="249.822" y2="218.341">
            <stop offset="0" style="stop-opacity:1; stop-color:#1E1EE5"/>
            <stop offset="1" style="stop-opacity:1; stop-color:#07A9F6"/>
        </linearGradient>
        <style type="text/css">

            .fil62 {fill:#FEFEFE;fill-rule:nonzero}
            .fil61 {fill:white;fill-rule:nonzero;fill-opacity:0.250980}
            .fil63 {fill:url(#id60);fill-rule:nonzero}
            .fil60 {fill:url(#id61);fill-rule:nonzero}

        </style>
    </defs>
    <g id="Layer_x0006_1">
        <g id="Layer_x0006_1_0">
            <path class="fil60"
                  d="M676.574 216.907c142.327,0 257.705,115.378 257.705,257.706 0,142.326 -115.378,257.704 -257.705,257.704 -142.327,0 -257.705,-115.378 -257.705,-257.704 0,-142.328 115.378,-257.706 257.705,-257.706z"/>
            <path class="fil61"
                  d="M676.573 297.46c97.839,0 177.153,79.314 177.153,177.152 0,97.839 -79.314,177.152 -177.153,177.152 -97.838,0 -177.152,-79.313 -177.152,-177.152 0,-97.838 79.314,-177.152 177.152,-177.152z"/>
            <path class="fil62"
                  d="M543.953 527.06l75.805 0 0 26.036 36.248 0 0 -26.036 18.771 0 0 -29.882 -18.771 0 0 -101.013 -47.756 0 -64.297 101.299 0 29.596 0 0zm76.56 -29.882l-38.837 0 0 -1.259 37.614 -59.587 1.223 0 0 60.846 0 0zm133.269 -103.135c-36.176,-0.071 -60.917,22.584 -60.773,55.091 0.072,28.876 19.779,49.877 47.899,49.877 17.514,0 33.3,-8.45 39.845,-22.546l0.898 0c-0.072,28.588 -9.493,46.459 -28.66,46.459 -10.572,0 -18.699,-5.213 -21,-15.713l-37.292 0c2.842,27.041 25.208,48.042 58.292,48.042 39.988,0 66.203,-31.502 66.059,-83.823 -0.072,-56.709 -30.89,-77.315 -65.268,-77.387l0 0zm0.216 29.092c13.881,0 24.057,10.968 24.201,24.669 0.072,13.809 -10.572,24.849 -24.345,24.849 -14.025,0 -23.986,-10.752 -24.057,-24.742 -0.18,-13.952 10.176,-24.776 24.201,-24.776z"/>
            <path class="fil63"
                  d="M272.603 217.311c142.327,0 257.706,115.378 257.706,257.705 0,142.327 -115.379,257.705 -257.706,257.705 -142.327,0 -257.705,-115.378 -257.705,-257.705 0,-142.327 115.378,-257.705 257.705,-257.705z"/>
            <path class="fil61"
                  d="M272.602 297.863c97.839,0 177.153,79.313 177.153,177.151 0,97.84 -79.314,177.154 -177.153,177.154 -97.838,0 -177.152,-79.314 -177.152,-177.154 0,-97.837 79.314,-177.151 177.152,-177.151z"/>
            <polygon class="fil62"
                     points="199.653,599.713 261.659,599.713 362.583,399.293 362.583,350.318 182.623,350.318 182.623,398.894 300.234,398.894 300.234,400.493 "/>
        </g>
    </g>
</svg>