<?xml version="1.0" encoding="utf-8"?>
<svg viewBox="0 513.71 2480 2480" width="2480" height="2480" xmlns="http://www.w3.org/2000/svg">
    <defs>
        <linearGradient id="id110" gradientUnits="userSpaceOnUse" x1="0" y1="1753.71" x2="2480" y2="1753.71">
            <stop offset="0" style="stop-opacity:1; stop-color:#00A2FF"/>
            <stop offset="0.502" style="stop-opacity:1; stop-color:#FF00D2"/>
            <stop offset="1" style="stop-opacity:1; stop-color:#FEBA0F"/>
        </linearGradient>
        <style type="text/css">

            .fil110 {fill:url(#id110);fill-rule:nonzero}

        </style>
    </defs>
    <g id="Layer_x0030_1">
        <path class="fil110"
              d="M1123.75 1094.96c0,-64.42 51.83,-116.25 116.25,-116.25 64.42,0 116.25,51.83 116.25,116.25l0 596.75 413.17 275.13c53.28,35.84 67.81,108.02 28.1,161.3 -31.49,53.28 -103.66,67.81 -156.94,28.09l-465 -310c-32.45,-17.44 -51.83,-53.77 -51.83,-96.87l0 -654.4zm116.25 -581.25c684.91,0 1240,555.1 1240,1240 0,684.91 -555.09,1240 -1240,1240 -684.91,0 -1240,-555.09 -1240,-1240 0,-684.9 555.09,-1240 1240,-1240zm-1007.5 1240c0,556.55 450.95,1007.5 1007.5,1007.5 556.55,0 1007.5,-450.95 1007.5,-1007.5 0,-556.54 -450.95,-1007.5 -1007.5,-1007.5 -556.55,0 -1007.5,450.96 -1007.5,1007.5z"/>
    </g>
</svg>