<?xml version="1.0" encoding="utf-8"?>
<svg version="1.0" width="667.000000pt" height="330.000000pt" viewBox="0 0 667.000000 330.000000"
     preserveAspectRatio="xMidYMid meet" xmlns="http://www.w3.org/2000/svg">
    <defs>
        <linearGradient gradientUnits="userSpaceOnUse" x1="3334.128" y1="12.555" x2="3334.128" y2="3296.112"
                        id="gradient-80">
            <stop offset="0" style="stop-color: rgb(111, 116, 245);"/>
            <stop offset="1" style="stop-color: rgb(224, 3, 255);"/>
        </linearGradient>
        <linearGradient gradientUnits="userSpaceOnUse" x1="2804.526" y1="2810" x2="2804.526" y2="3139.054"
                        id="gradient-81"
                        gradientTransform="matrix(0.999996, -0.002707, 0.027099, 10.010498, -85.056351, -28107.421448)">
            <stop offset="0" style="stop-color: rgb(112, 115, 245);"/>
            <stop offset="1" style="stop-color: rgb(224, 3, 255);"/>
        </linearGradient>
        <linearGradient gradientUnits="userSpaceOnUse" x1="4292.746" y1="1731.873" x2="4292.746" y2="1807.75"
                        id="gradient-82"
                        gradientTransform="matrix(0.999992, -0.004081, 0.176276, 43.189934, -296.33393, -74757.717141)">
            <stop offset="0" style="stop-color: rgb(112, 115, 245);"/>
            <stop offset="1" style="stop-color: rgb(224, 4, 255);"/>
        </linearGradient>
        <linearGradient gradientUnits="userSpaceOnUse" x1="4167.199" y1="1671.32" x2="4167.199" y2="1738.927"
                        id="gradient-83"
                        gradientTransform="matrix(0.999991, 0.004086, -0.197844, 48.416678, 321.778895, -80901.755042)">
            <stop offset="0" style="stop-color: rgb(112, 115, 245);"/>
            <stop offset="1" style="stop-color: rgb(224, 4, 255); stop-opacity: 0.58;"/>
        </linearGradient>
    </defs>
    <g transform="translate(0.000000,330.000000) scale(0.100000,-0.100000)" fill="#000000" stroke="none">
        <path d="M 3166 3290 C 3013 3266 2854 3207 2620 3090 C 2321 2941 1948 2696 1856 2589 C 1780 2500 1724 2348 1699 2160 C 1676 1993 1695 1715 1745 1484 C 1752 1454 1750 1453 1714 1447 C 1694 1444 1623 1415 1556 1383 L 1435 1325 L 1296 1327 C 1179 1330 1151 1327 1116 1311 C 1056 1285 1040 1260 1014 1162 C 976 1021 949 1001 800 1001 C 639 1000 510 1049 458 1129 C 443 1154 430 1181 430 1189 C 430 1199 462 1222 508 1245 L 585 1286 L 588 1648 C 589 1847 587 2010 583 2010 C 578 2010 449 1946 295 1867 L 15 1725 L 12 1363 C 11 1163 12 1000 15 1000 C 18 1000 97 1038 190 1085 C 283 1132 363 1170 367 1170 C 372 1169 385 1147 398 1120 C 440 1031 545 973 711 949 C 853 929 974 955 1017 1016 C 1038 1046 1049 1076 1075 1171 C 1099 1260 1108 1265 1269 1266 C 1344 1267 1421 1270 1440 1275 C 1459 1279 1528 1307 1593 1337 C 1658 1367 1724 1393 1741 1394 C 1769 1395 1772 1391 1791 1335 C 1893 1036 2045 882 2425 690 C 2619 591 2863 491 3080 420 C 3193 383 3193 383 3176 358 C 3154 326 3155 238 3179 192 C 3251 52 3455 -6 3788 19 C 4221 51 4362 111 4316 243 C 4301 284 4307 287 4352 264 C 4395 242 4426 253 4442 296 C 4454 330 4456 331 4495 326 C 4517 323 4619 315 4723 308 C 4886 298 4942 298 5160 314 C 5483 337 5526 330 5501 259 C 5495 241 5490 212 5490 193 C 5490 99 5639 49 6010 19 C 6292 -3 6474 31 6579 126 C 6657 196 6676 269 6637 352 C 6601 430 6524 518 6442 577 C 6231 728 5927 762 5471 684 C 5425 676 5365 670 5339 670 C 5228 670 5266 717 5797 1230 C 6018 1444 6037 1469 6025 1549 C 6012 1638 5945 1729 5880 1745 C 5863 1749 5787 1729 5645 1682 C 5447 1617 5434 1614 5403 1626 C 5352 1648 5315 1643 5165 1596 C 5088 1572 5018 1550 5010 1548 C 4997 1545 4994 1636 4990 2305 C 4986 2854 4982 3071 4973 3085 C 4954 3119 4923 3141 4883 3151 C 4815 3167 4350 3228 4140 3249 C 3757 3287 3277 3307 3166 3290 Z M 3865 3245 C 4299 3211 4790 3149 4790 3128 C 4790 3124 4787 3120 4783 3120 C 4778 3120 4480 2970 4120 2786 C 3652 2548 3452 2441 3418 2411 C 3388 2385 3352.588 2344.677 3332.588 2302.677 L 3320.496 2252.589 L 3302 1908 L 3299 1581 L 3092 1587 C 2793 1595 2502 1570 2290 1519 C 2113 1476 1930 1385 1866 1309 L 1840 1279 L 1829 1307 C 1823 1322 1807 1371 1794 1415 C 1661 1854 1700 2368 1882 2575 C 1924 2622 2090 2745 2250 2847 C 2607 3074 2951 3229 3175 3264 C 3229 3272 3671 3260 3865 3245 Z M 4937 3081 L 4960 3047 L 4960 2289 L 4960 1531 L 4874 1505 C 4827 1491 4786 1481 4783 1484 C 4780 1487 4783 1509 4790 1532 C 4808 1591 4816 2465 4800 2559 C 4774 2712 4670 2790 4539 2756 C 4483 2741 3891 2445 3793 2383 C 3692 2319 3582.268 2173.634 3533.268 2030.634 L 3520.458 1953.909 L 3512 1461 C 3510 1045 3512 960 3524 916 C 3558 800 3628 746 3736 752 C 3791 755 3824 769 4116 917 L 4435 1078 L 4441 1127 C 4452 1215 4525 1340 4589 1382 C 4619 1402 4691 1406 4739 1389 C 4782 1374 4778 1364 4730 1368 C 4708 1370 4673 1369 4652 1364 C 4617 1357 4619 1356 4685 1350 C 4808 1339 4900 1278 4984 1151 C 5072 1018 5112 863 5090 745 C 5079 687 5045 612 5034 622 C 5032 625 5038 657 5047 695 C 5085 849 5015 1069 4880 1213 C 4818 1281 4783 1305 4766 1291 C 4756 1283 4743 1284 4717 1295 C 4618 1336 4518 1285 4489 1177 C 4474 1122 4483 969 4505 907 C 4519 869 4520 856 4510 847 C 4501 838 4495 839 4487 852 C 4475 870 4517 891 3663 454 C 3541 391 3429 340 3415 340 C 3370 340 3333 389 3325 461 C 3321 495 3321 903 3325 1369 C 3333 2327 3328 2271 3416 2369 C 3456 2414 3501 2439 3888 2636 C 4123 2756 4432 2914 4575 2987 C 4796 3100 4841 3120 4875 3118 C 4907 3115 4918 3109 4937 3081 Z M 4420 2055 C 4420 2033 4423 2030 4445 2036 C 4467 2041 4470 2039 4470 2017 C 4470 1998 4459 1986 4426 1966 C 4401 1952 4379 1940 4376 1940 C 4373 1940 4370 1965 4370 1996 C 4370 2038 4374 2056 4388 2066 C 4413 2085 4420 2083 4420 2055 Z M 560 1635 L 560 1300 L 490 1265 L 420 1230 L 420 1308 L 420 1386 L 454 1403 C 482 1416 491 1428 504 1473 C 534 1575 518 1730 477 1738 C 468 1740 388 1704 300 1658 L 139 1575 L 124 1522 C 102 1447 108 1300 134 1272 L 152 1251 L 252 1301 C 307 1329 354 1350 355 1348 C 357 1346 360 1313 361 1275 L 364 1205 L 209 1123 C 124 1078 49 1041 43 1040 C 28 1040 25 1354 37 1582 L 43 1708 L 299 1839 C 440 1911 556 1970 558 1970 C 559 1970 560 1819 560 1635 Z M 4340 1885 C 4340 1852 4342 1850 4360 1860 C 4379 1870 4380 1868 4380 1811 C 4380 1760 4377 1750 4360 1745 C 4343 1739 4340 1730 4340 1670 C 4340 1612 4337 1599 4321 1590 C 4293 1576 4290 1577 4290 1605 C 4290 1628 4288 1629 4270 1620 C 4257 1613 4250 1599 4250 1581 C 4250 1564 4244 1550 4234 1546 C 4208 1536 4200 1539 4200 1561 C 4200 1593 4175 1578 4172 1543 C 4170 1522 4161 1509 4144 1502 L 4120 1490 L 4120 1555 C 4120 1620 4120 1620 4095 1614 C 4071 1608 4070 1609 4070 1659 C 4070 1702 4074 1712 4095 1726 C 4115 1739 4120 1751 4120 1781 L 4120 1820 L 4218 1869 C 4271 1897 4321 1919 4328 1919 C 4335 1920 4340 1907 4340 1885 Z M 4090 1844 L 4090 1789 L 4044 1770 C 3987 1745 3990 1745 3990 1775 C 3990 1790 3999 1806 4015 1816 C 4032 1827 4040 1841 4040 1861 C 4040 1888 4066 1914 4082 1904 C 4087 1901 4090 1874 4090 1844 Z M 4470 1695 C 4470 1678 4462 1666 4445 1658 C 4426 1649 4420 1639 4420 1614 C 4420 1585 4407 1570 4379 1570 C 4374 1570 4370 1595 4370 1625 C 4370 1678 4371 1680 4408 1699 C 4458 1726 4470 1725 4470 1695 Z M 491 1656 C 498 1621 500 1585 494 1554 L 486 1505 L 480 1548 C 475 1590 468 1597 411 1626 C 396 1634 243 1558 223 1532 C 215 1522 210 1486 210 1442 C 210 1369 210 1368 240 1357 C 257 1351 270 1343 270 1340 C 270 1337 246 1322 216 1308 C 144 1272 135 1282 135 1399 C 135 1544 137 1547 308 1634 C 389 1675 460 1709 467 1710 C 473 1710 484 1686 491 1656 Z M 5913 1539 C 6046 1508 6040 1496 5811 1322 C 5723 1255 5649 1200 5647 1200 C 5645 1200 5640 1228 5637 1263 C 5630 1335 5601 1422 5565 1475 C 5551 1495 5540 1513 5540 1515 C 5540 1524 5603 1552 5643 1560 C 5699 1572 5806 1563 5913 1539 Z M 4090 1477 C 4090 1425 4078 1400 4053 1400 C 4046 1400 4040 1411 4040 1425 C 4040 1447 4037 1449 4021 1440 C 3993 1425 3990 1427 3990 1458 C 3990 1479 3999 1490 4028 1507 C 4084 1540 4090 1537 4090 1477 Z M 5116 1495 C 5216 1445 5308 1325 5345 1196 C 5377 1086 5362 939 5316 901 C 5293 882 5286 893 5299 931 C 5334 1032 5287 1222 5195 1350 C 5177 1375 5164 1400 5166 1405 C 5168 1411 5140 1435 5104 1460 C 5068 1484 5036 1508 5034 1512 C 5024 1528 5068 1519 5116 1495 Z M 5037 1458 C 5124 1414 5222 1285 5261 1160 C 5288 1073 5289 957 5262 897 C 5244 857 5156 770 5145 782 C 5142 785 5146 800 5155 816 C 5163 833 5170 871 5170 905 C 5170 994 5137 1055 5032 1163 L 4945 1252 L 4990 1292 C 5015 1313 5048 1338 5063 1346 C 5098 1365 5094 1371 5006 1431 C 4970 1455 4940 1479 4940 1484 C 4940 1495 4986 1483 5037 1458 Z M 5559 1430 C 5603 1347 5624 1242 5610 1176 C 5604 1148 5593 1116 5585 1104 C 5574 1087 5447 990 5395 958 C 5388 954 5385 989 5385 1058 C 5385 1186 5362 1266 5295 1366 C 5271 1401 5255 1432 5259 1435 C 5264 1437 5320 1449 5386 1461 C 5451 1472 5507 1484 5509 1486 C 5520 1496 5530 1486 5559 1430 Z M 4853 1206 C 4964 1093 5030 934 5030 782 C 5030 629 4970 545 4863 545 C 4827 545 4810 541 4810 533 C 4810 526 4805 520 4800 520 C 4784 520 4709 560 4671 588 C 4630 620 4550 717 4550 736 C 4550 764 4574 749 4633 684 C 4693 619 4744 580 4787 566 C 4807 560 4808 561 4799 598 C 4795 619 4775 678 4755 729 C 4736 780 4720 824 4720 826 C 4720 828 4737 838 4758 848 C 4791 864 4795 870 4793 900 C 4791 939 4757 975 4731 964 C 4681 944 4680 944 4680 1008 C 4680 1050 4689 1092 4709 1147 C 4763 1291 4757 1282 4780 1270 C 4791 1264 4824 1235 4853 1206 Z M 4745 931 C 4739 925 4629 864 4500 795 C 4371 725 4255 662 4243 654 C 4230 646 4220 644 4220 649 C 4220 659 4275 691 4570 854 C 4709 930 4773 958 4745 931 Z M 4768 894 C 4766 885 4661 826 4515 752 C 4339 662 4262 618 4255 603 C 4250 590 4233 576 4218 571 C 4200 564 4190 554 4190 541 C 4190 529 4184 520 4176 520 C 4148 520 4171 570 4205 584 C 4223 592 4241 607 4244 617 C 4248 630 4339 684 4503 772 C 4641 847 4759 908 4763 909 C 4768 910 4770 903 4768 894 Z M 4440 813 C 4440 804 4255 700 4240 700 C 4213 700 4239 720 4328 768 C 4427 820 4440 826 4440 813 Z M 4518 692 C 4521 672 4517 670 4476 670 C 4422 670 4418 680 4463 703 C 4502 722 4514 720 4518 692 Z M 4160 601 C 4160 595 4155 588 4150 585 C 4144 581 4142 574 4146 569 C 4154 556 4131 530 4112 530 C 4099 530 4099 532 4113 548 C 4123 558 4130 576 4130 588 C 4130 601 4136 610 4145 610 C 4153 610 4160 606 4160 601 Z M 4090 531 C 4090 526 4083 520 4075 516 C 4066 513 4060 498 4060 480 C 4060 449 4064 446 4210 377 C 4345 312 4381 290 4349 290 C 4331 290 4014 448 4001 463 C 3992 475 3997 483 4032 509 C 4075 541 4090 547 4090 531 Z M 4588 520 C 4600 520 4610 514 4610 505 C 4610 485 4554 476 4431 475 C 4351 475 4326 478 4322 489 C 4318 500 4330 502 4389 496 C 4445 490 4460 492 4458 502 C 4455 516 4512 530 4545 524 C 4556 522 4575 520 4588 520 Z M 4128 483 C 4131 460 4156 447 4295 389 C 4390 350 4386 352 4373 339 C 4365 331 4324 346 4226 393 C 4094 457 4062 482 4091 501 C 4111 513 4125 507 4128 483 Z M 6330 431 C 6330 426 6313 415 6291 407 C 6270 398 6245 383 6235 374 C 6221 360 6217 359 6210 371 C 6200 387 6223 418 6255 431 C 6282 442 6330 442 6330 431 Z M 3949 350 C 3992 344 4020 334 4034 320 C 4053 301 4054 298 4040 274 C 4019 238 3914 176 3848 162 C 3782 147 3749 156 3724 197 C 3697 240 3680 250 3629 250 C 3553 250 3537 292 3600 325 C 3654 353 3839 366 3949 350 Z M 6250 302 C 6250 259 6132 198 6090 220 C 6057 238 6066 258 6113 270 C 6181 287 6200 298 6211 327 C 6221 354 6222 354 6236 336 C 6244 325 6250 310 6250 302 Z M 4425 330 C 4429 324 4424 308 4415 293 C 4393 259 4371 277 4388 315 C 4400 341 4414 347 4425 330 Z"
              style="fill: url(#gradient-80);"/>
        <path d="M2742 2988 c-241 -124 -291 -152 -281 -164 7 -8 30 -14 57 -14 39 0 87 21 331 146 157 80 290 150 296 156 16 15 -15 28 -65 27 -38 0 -92 -25 -338 -151z m328 118 c0 -11 -514 -267 -529 -263 -9 2 101 62 244 135 235 118 285 141 285 128z"
              style="fill: url(#gradient-81);"/>
        <path d="M4288 1789 c-25 -12 -38 -27 -38 -39 0 -24 5 -24 49 -1 21 11 35 26 36 40 2 25 0 25 -47 0z"
              style="fill: url(#gradient-82);"/>
        <path d="M4158 1724 c-16 -8 -28 -23 -28 -34 0 -24 3 -24 39 -5 16 8 31 23 34 35 6 24 -7 25 -45 4z"
              style="fill: url(#gradient-83);"/>
    </g>
</svg>