<?xml version="1.0" encoding="utf-8"?>
<svg viewBox="34.979 52.415 810.375 862.011" width="810.375" height="862.011" xmlns="http://www.w3.org/2000/svg">
  <defs>
    <linearGradient id="id0" gradientUnits="userSpaceOnUse" x1="440.167" y1="914.426" x2="440.167" y2="52.415">
      <stop offset="0" style="stop-opacity:1; stop-color:#6461FF"/>
      <stop offset="1" style="stop-opacity:1; stop-color:#E204FF"/>
    </linearGradient>
    <style type="text/css">
   
    .fil0 {fill:url(#id0)}
   
  </style>
  </defs>
  <g id="Слой_x0020_1">
    <path class="fil0" d="M208.726 633.299c-59.207,0 -107.384,48.162 -107.384,107.381 0,59.211 48.171,107.372 107.384,107.372 59.212,0 107.38,-48.161 107.38,-107.372 0,-59.219 -48.168,-107.381 -107.38,-107.381zm437.7 -493.484c-18.692,0 -18.685,28.409 0,28.409 18.67,0 18.696,-28.409 0,-28.409zm-10.438 47.231c-34.521,-9.693 -31.052,-67.431 10.438,-67.431 41.857,0 45.016,58.813 9.474,67.691 0.079,0.55 0.122,1.126 0.122,1.731l0 57.441 28.412 0c3.601,-13.246 14.467,-24.301 32.615,-24.301 45.282,0 45.282,68.814 0,68.814l0 0c-18.149,0 -29.019,-11.059 -32.616,-24.308l-28.411 0 0 67.098 102.712 0c27.345,0 49.601,22.247 49.601,49.59l0 129.343 26.923 0c5.577,0 10.096,4.53 10.096,10.099l0 140.701c0.012,5.585 -4.519,10.115 -10.096,10.115l0 0 -26.923 0 0 129.354c0.007,27.352 -22.238,49.605 -49.59,49.605l0 0 -139.116 0c-26.486,37.387 -70.081,61.838 -119.28,61.838l0 0c-61.672,0 -115.852,-39.112 -136.822,-94.916 -1.322,2.587 -2.708,5.138 -4.154,7.648 -0.208,0.41 -0.441,0.807 -0.702,1.187 -30.196,51.456 -86.098,86.081 -149.945,86.081l0 0c-31.299,0 -60.69,-8.324 -86.082,-22.868 -0.555,-0.259 -1.078,-0.567 -1.568,-0.917 -51.463,-30.198 -86.097,-86.113 -86.097,-149.976 0,-64.11 34.903,-120.217 86.702,-150.326l0.003 -206.968c0,-27.343 22.245,-49.59 49.597,-49.59l102.725 0 0 -67.098 -28.407 0c-3.6,13.249 -14.467,24.308 -32.615,24.308l0 0c-45.287,0 -45.29,-68.814 0,-68.814 18.147,0 29.015,11.056 32.613,24.301l28.409 0 0 -48.625c-34.872,-9.41 -31.508,-67.515 10.102,-67.515 41.609,0 44.974,58.103 10.104,67.515l0 15.967 35.686 -0.482 -0.002 -93.398c-34.862,-9.418 -31.503,-67.525 10.108,-67.525 41.618,0 44.974,58.126 10.093,67.53l0 93.393c0.007,11.49 -9.336,20.823 -20.816,20.823l-35.069 0 0 99.62 76.675 0 0 -50.488c-31.884,-9.346 -28.523,-62.908 10.099,-62.908 38.622,0 41.991,53.563 10.101,62.908l0 50.488 62.978 0 0 -78.241c-31.87,-9.354 -28.506,-62.906 10.107,-62.906 38.633,0 41.994,53.565 10.099,62.909l0 78.238 62.982 0 0 -50.487c-31.895,-9.344 -28.534,-62.909 10.1,-62.909 38.616,0 41.989,53.557 10.106,62.907l0 50.489 78.364 0 0 -99.62 -35.067 0c-11.485,0 -20.83,-9.345 -20.83,-20.823l0 -93.394c-34.884,-9.408 -31.526,-67.529 10.1,-67.529 41.586,0 44.973,58.051 10.16,67.511l0.563 94.03 35.074 0 0 -24.919c0,-0.701 0.059,-1.363 0.165,-1.991zm-426.113 475.13c-1.279,0.021 -2.438,0.763 -2.992,1.915l-47.103 74.024c-0.078,0.114 -0.149,0.234 -0.211,0.357 -0.003,0.001 -0.006,0.004 -0.007,0.006 -0.05,0.099 -0.094,0.202 -0.132,0.304 -0.081,0.211 -0.142,0.431 -0.179,0.654 -0.032,0.187 -0.048,0.377 -0.048,0.567 0,0.035 0.001,0.073 0.002,0.107 0,0 0,0.002 0,0.003 0,0.001 0,0.002 0,0.003 0.003,0.109 0.012,0.221 0.026,0.33 0.005,0.023 0.009,0.045 0.013,0.067 0.028,0.167 0.068,0.334 0.12,0.495 0.008,0.03 0.017,0.062 0.026,0.092 0,0.001 0,0.003 0,0.004 0,0 0,0.002 0,0.003 0.036,0.105 0.079,0.21 0.126,0.31 0,0.001 0,0.003 0,0.003 0,0.001 0,0.003 0,0.004 0.047,0.1 0.101,0.197 0.158,0.291 0,0 0,0.002 0,0.003 0,0 0,0.003 0,0.003 0.056,0.095 0.119,0.189 0.185,0.278 0.031,0.039 0.066,0.08 0.099,0.119 0.037,0.049 0.079,0.098 0.119,0.145 0.072,0.082 0.15,0.162 0.231,0.237 0.001,0.002 0.005,0.005 0.007,0.007 0.164,0.15 0.344,0.283 0.534,0.397 0.002,0.001 0.005,0.005 0.007,0.006 0.017,0.009 0.036,0.018 0.053,0.026 0.001,0.002 0.004,0.006 0.006,0.007l46.912 26.808c0.597,0.47 1.335,0.727 2.096,0.727 0.752,0 1.485,-0.252 2.078,-0.714l46.873 -26.788c0.024,-0.013 0.049,-0.026 0.073,-0.04 0.073,-0.043 0.146,-0.09 0.217,-0.139 0.022,-0.014 0.045,-0.03 0.067,-0.046 0.014,-0.013 0.031,-0.026 0.045,-0.039 0.071,-0.047 0.14,-0.099 0.205,-0.152 0.004,-0.004 0.009,-0.009 0.013,-0.013 0.013,-0.01 0.028,-0.022 0.039,-0.033 0.072,-0.065 0.141,-0.134 0.206,-0.205 0.076,-0.082 0.15,-0.168 0.218,-0.257 0.065,-0.087 0.128,-0.179 0.185,-0.272 0.002,-0.001 0.004,-0.005 0.006,-0.006 0.002,-0.006 0.005,-0.014 0.007,-0.02 0.057,-0.087 0.11,-0.178 0.158,-0.27 0,-0.002 0,-0.003 0,-0.004 0,0 0,-0.002 0,-0.003 0.039,-0.078 0.074,-0.158 0.106,-0.238 0.009,-0.024 0.018,-0.049 0.027,-0.073 0.008,-0.026 0.018,-0.053 0.025,-0.079 0.025,-0.075 0.048,-0.154 0.067,-0.231 0.001,-0.004 0.005,-0.009 0.006,-0.013 0.003,-0.006 0.005,-0.014 0.008,-0.02 0.024,-0.102 0.044,-0.206 0.059,-0.31 0.014,-0.086 0.025,-0.173 0.033,-0.258 0,-0.004 0,-0.009 0,-0.013 0,-0.004 0,-0.009 0,-0.013 0.005,-0.075 0.008,-0.152 0.008,-0.228 0,-0.027 -0.001,-0.056 -0.001,-0.083 -0.003,-0.066 -0.007,-0.133 -0.014,-0.199 -0.004,-0.07 -0.011,-0.141 -0.02,-0.211 0,0 0,-0.002 0,-0.002 0,-0.001 0,-0.003 0,-0.004 -0.002,-0.01 -0.004,-0.022 -0.006,-0.033 -0.016,-0.096 -0.036,-0.19 -0.059,-0.284 0,-0.002 0,-0.005 0,-0.006 0,-0.002 0,-0.005 0,-0.007 -0.021,-0.084 -0.046,-0.169 -0.073,-0.252 -0.008,-0.023 -0.018,-0.048 -0.027,-0.072 -0.01,-0.026 -0.022,-0.053 -0.033,-0.079 -0.028,-0.075 -0.059,-0.151 -0.092,-0.224 -0.001,-0.002 -0.005,-0.006 -0.006,-0.007 -0.003,-0.006 -0.005,-0.014 -0.008,-0.02 -0.048,-0.094 -0.101,-0.188 -0.158,-0.278 -0.007,-0.01 -0.014,-0.022 -0.02,-0.033 -0.004,-0.007 -0.009,-0.018 -0.014,-0.026l-0.105 -0.159 -47.057 -73.95c-0.567,-1.16 -1.747,-1.896 -3.038,-1.896 -0.015,0 -0.031,0 -0.046,0l0 0zm-3.329 15.045l0 40.255 -35.222 15.091 35.222 -55.346zm6.763 0l35.222 55.346 -35.222 -15.091 0 -40.255zm-6.763 47.612l0 36.385 -36.378 -20.785 36.378 -15.6zm6.763 0l36.378 15.6 -36.378 20.785 0 -36.385zm43.986 28.684c-0.006,0 -0.013,0 -0.02,0 -0.59,0 -1.172,0.155 -1.683,0.449l-45.664 26.094 -45.664 -26.094c-0.492,-0.28 -1.047,-0.433 -1.611,-0.443 -0.022,0 -0.045,0 -0.067,0 -1.867,0 -3.381,1.514 -3.381,3.381 0,0.723 0.232,1.428 0.66,2.009l47.117 63.945c0.599,1.061 1.725,1.718 2.944,1.718 1.217,0 2.34,-0.654 2.941,-1.711l47.123 -63.952c0.431,-0.583 0.665,-1.29 0.665,-2.015 0,-1.858 -1.501,-3.369 -3.36,-3.381l0 0zm-82.491 14.266l31.742 18.142 0 24.939 -31.742 -43.081zm70.247 0l-31.742 43.081 0 -24.939 31.742 -18.142zm284.685 -15.841c-1.995,-1.141 -4.56,-1.141 -6.84,0l-15.962 9.405 -10.831 5.986 -15.677 9.406c-1.996,1.14 -4.561,1.14 -6.841,0l-12.256 -7.411c-1.995,-1.14 -3.42,-3.42 -3.42,-5.986l0 -14.251c0,-2.281 1.14,-4.561 3.42,-5.986l12.256 -7.126c1.996,-1.14 4.561,-1.14 6.841,0l12.256 7.411c1.995,1.14 3.421,3.42 3.421,5.986l0 9.406 10.831 -6.271 0 -9.691c0,-2.28 -1.14,-4.56 -3.42,-5.986l-22.803 -13.396c-1.995,-1.14 -4.56,-1.14 -6.841,0l-23.372 13.681c-2.28,1.141 -3.421,3.421 -3.421,5.701l0 26.793c0,2.28 1.141,4.56 3.421,5.986l23.087 13.396c1.996,1.141 4.561,1.141 6.841,0l15.677 -9.12 10.831 -6.271 15.677 -9.122c1.995,-1.14 4.56,-1.14 6.84,0l12.257 7.126c1.995,1.14 3.42,3.421 3.42,5.986l0 14.251c0,2.281 -1.14,4.561 -3.42,5.986l-11.971 7.126c-1.996,1.14 -4.561,1.14 -6.841,0l-12.257 -7.126c-1.995,-1.14 -3.42,-3.42 -3.42,-5.986l0 -9.12 -10.831 6.27 0 9.406c0,2.281 1.14,4.561 3.42,5.986l23.088 13.396c1.995,1.14 4.561,1.14 6.841,0l23.087 -13.396c1.996,-1.14 3.42,-3.42 3.42,-5.986l0 -27.078c0,-2.28 -1.14,-4.56 -3.42,-5.986l-23.088 -13.395zm-153.75 35.897c9.449,60.796 62.548,106.381 124.37,106.381 65.002,0 118.637,-49.521 125.194,-112.812 -0.103,-4.319 0.585,-8.978 0.667,-12.426 0.002,-0.213 0.009,-0.424 0.009,-0.637l0 -0.006c0,-1.051 -0.015,-2.098 -0.04,-3.142l-0.006 -0.21c-0.025,-0.952 -0.062,-1.902 -0.108,-2.849l-0.03 -0.582c-0.045,-0.844 -0.099,-1.686 -0.161,-2.526l-0.001 -0.019c-2.289,-28.381 -14.22,-55.398 -33.328,-76.264 -2.426,-2.611 -4.956,-5.126 -7.593,-7.525l-0.05 -0.045c-0.724,-0.658 -1.456,-1.308 -2.195,-1.949l-0.086 -0.074c-0.724,-0.626 -1.454,-1.244 -2.192,-1.854l-0.152 -0.125c-0.728,-0.6 -1.462,-1.191 -2.203,-1.775l-0.143 -0.112c-0.733,-0.575 -1.472,-1.142 -2.217,-1.701l-0.215 -0.161c-0.738,-0.551 -1.482,-1.093 -2.232,-1.629l-0.199 -0.141c-0.749,-0.532 -1.504,-1.056 -2.265,-1.572l-0.233 -0.158c-0.761,-0.513 -1.529,-1.018 -2.301,-1.516l-0.214 -0.138c-0.78,-0.5 -1.566,-0.99 -2.357,-1.473l-0.209 -0.128c-0.787,-0.478 -1.581,-0.947 -2.38,-1.409l-0.236 -0.137c-0.813,-0.467 -1.632,-0.926 -2.457,-1.375l-0.17 -0.094c-0.832,-0.452 -1.67,-0.894 -2.513,-1.328l-0.29 -0.148c-0.811,-0.415 -1.627,-0.821 -2.449,-1.219l-0.4 -0.191c-0.775,-0.372 -1.554,-0.737 -2.338,-1.094l-0.472 -0.21c-0.758,-0.341 -1.519,-0.676 -2.285,-1.002l-0.549 -0.231c-0.739,-0.31 -1.481,-0.615 -2.228,-0.912l-0.644 -0.253c-0.725,-0.284 -1.453,-0.561 -2.184,-0.831l-0.713 -0.261c-0.702,-0.255 -1.407,-0.504 -2.115,-0.747l-0.802 -0.271c-0.691,-0.232 -1.385,-0.457 -2.082,-0.678l-0.859 -0.268c-0.685,-0.211 -1.373,-0.415 -2.062,-0.614 -0.295,-0.086 -0.59,-0.171 -0.886,-0.254 -0.688,-0.194 -1.379,-0.38 -2.072,-0.562 -0.303,-0.08 -0.605,-0.16 -0.908,-0.237 -0.68,-0.173 -1.363,-0.339 -2.047,-0.5 -0.356,-0.085 -0.712,-0.169 -1.07,-0.25 -0.653,-0.149 -1.309,-0.291 -1.966,-0.429 -0.403,-0.085 -0.807,-0.168 -1.212,-0.25 -0.609,-0.122 -1.221,-0.238 -1.833,-0.352 -0.431,-0.079 -0.862,-0.157 -1.294,-0.232 -0.6,-0.105 -1.202,-0.204 -1.805,-0.3 -0.456,-0.073 -0.912,-0.142 -1.369,-0.21 -0.575,-0.085 -1.151,-0.165 -1.728,-0.242 -0.484,-0.065 -0.97,-0.126 -1.456,-0.185 -0.57,-0.07 -1.142,-0.135 -1.714,-0.197 -0.475,-0.051 -0.952,-0.099 -1.428,-0.145 -0.606,-0.059 -1.213,-0.113 -1.822,-0.163 -0.444,-0.036 -0.889,-0.069 -1.334,-0.1 -0.673,-0.049 -1.348,-0.092 -2.023,-0.129l-0.013 -0.001 -0.013 -0.001 -0.014 -0.001 -0.808 -0.042 -0.038 -0.001c-0.785,-0.039 -1.571,-0.067 -2.359,-0.09l-0.039 -0.002 -0.035 -0.001 -0.035 -0.001c-0.399,-0.012 -0.799,-0.018 -1.2,-0.024l-0.035 0 -0.106 -0.002 -0.035 0 -0.036 -0.001 -0.035 0 -0.036 -0.001 -0.035 0 -0.035 -0.001 -0.036 0 -0.035 0 -0.071 -0.001 -0.035 -0.001 -0.036 0 -0.035 -0.001 -0.071 -0.001 -0.035 0 -0.036 0 -0.035 -0.001 -0.035 0 -0.036 -0.001 -0.035 0 -0.035 -0.001 -0.036 0 -0.035 -0.001 -0.022 0 -0.022 -0.001 -0.022 0 -0.022 0 -0.022 0 -0.022 -0.001 -0.021 0 -0.066 -0.001 -0.022 0c-0.385,-0.007 -0.77,-0.015 -1.16,-0.015 -0.832,0 -1.662,0.009 -2.491,0.025l-0.001 0c-0.829,0.016 -1.656,0.04 -2.482,0.073l-0.001 0c-0.825,0.032 -1.649,0.072 -2.471,0.121l-0.002 0c-0.822,0.048 -1.642,0.105 -2.461,0.169l-0.002 0c-0.818,0.064 -1.635,0.136 -2.449,0.216l-0.003 0c-2.445,0.24 -4.873,0.55 -7.282,0.929l-0.004 0.001 -0.009 0.002c-44.976,7.082 -83.19,38.128 -98.86,81.835l-0.007 0.064c0.411,4.869 0.633,9.79 0.633,14.764 0,2.087 -0.038,4.165 -0.111,6.234 -0.204,10.204 -1.564,23.84 -6.367,40.94zm-19.489 -5.436c1.774,-7.802 5.628,-21.525 5.762,-40.834l0.003 -0.786 0 -0.46c-0.011,-4.956 -0.26,-9.857 -0.733,-14.694l-0.012 -0.1 -0.068 -0.681 -0.008 -0.076c-0.073,-0.71 -0.153,-1.419 -0.235,-2.126 -0.076,-0.646 -0.156,-1.29 -0.238,-1.933 -0.046,-0.354 -0.096,-0.708 -0.144,-1.061 -0.124,-0.917 -0.262,-1.825 -0.401,-2.734 -6.734,-43.178 -31.519,-80.451 -66.372,-103.834l-13.01 22.532c33.36,23.038 55.268,61.535 55.268,105.055 0,19.622 -4.454,38.222 -12.402,54.844l22.529 13.008c4.111,-8.312 7.494,-17.047 10.061,-26.12zm90.603 -150.121l0.136 -0.053 0.033 -0.013c0.711,-0.277 1.424,-0.548 2.139,-0.814l0 0 0.346 -0.128 0.097 -0.036 0.034 -0.013 0.034 -0.012c0.557,-0.205 1.115,-0.407 1.676,-0.604l0 -0.001 0.824 -0.289 0.034 -0.011 0.034 -0.012 0.035 -0.012 0.034 -0.012c0.413,-0.143 0.826,-0.283 1.241,-0.423 0.414,-0.139 0.829,-0.276 1.245,-0.412l0.034 -0.011 0.035 -0.011 0.104 -0.034 0.034 -0.011 0.763 -0.246c0.579,-0.184 1.16,-0.364 1.742,-0.542l0.034 -0.01 0.14 -0.043 0.035 -0.01 0.279 -0.084 0 -0.001c0.746,-0.224 1.494,-0.442 2.244,-0.655l0.03 -0.008 0.005 -0.002 0.035 -0.01 0.014 -0.004 0.021 -0.006 0.036 -0.01 0.035 -0.009c0.691,-0.196 1.385,-0.385 2.081,-0.57l0 -0.001 0.495 -0.13 0.035 -0.01 0.071 -0.018 0.036 -0.01c0.543,-0.142 1.087,-0.28 1.632,-0.416 0.319,-0.079 0.638,-0.157 0.957,-0.234l0.179 -0.043c0.382,-0.092 0.764,-0.183 1.146,-0.271l0 0c0.501,-0.116 1.002,-0.23 1.505,-0.341l0.036 -0.008 0 0 0.035 -0.007 0.719 -0.157c0.67,-0.144 1.343,-0.283 2.017,-0.418l0.02 -0.004 0.016 -0.003 0.036 -0.008 0.216 -0.043c0.771,-0.152 1.544,-0.299 2.318,-0.439l0.217 -0.04 0.005 0 0.032 -0.006c0.69,-0.124 1.381,-0.243 2.074,-0.357l0.685 -0.111 0.008 -0.001 0.024 -0.004 0.013 -0.002 0.036 -0.006c0.523,-0.084 1.048,-0.164 1.573,-0.241 0.403,-0.06 0.806,-0.118 1.21,-0.175l0.007 0 0.03 -0.004c0.367,-0.051 0.735,-0.101 1.102,-0.15 0.552,-0.072 1.105,-0.141 1.658,-0.208l0.037 -0.004 0.027 -0.004 0.01 -0.001 0.037 -0.004 0.591 -0.069c0.726,-0.084 1.454,-0.162 2.183,-0.234l0.037 -0.004 0.011 -0.001 0.026 -0.003 0.112 -0.011c0.791,-0.078 1.583,-0.149 2.378,-0.215l0.361 -0.029 0.004 0 0.007 0 0.037 -0.003c0.658,-0.053 1.317,-0.1 1.977,-0.144l0.86 -0.053 0.014 -0.001 0.024 -0.002c0.499,-0.029 0.997,-0.056 1.497,-0.081 0.45,-0.022 0.9,-0.042 1.351,-0.06l0.035 -0.001 0.003 0 0.037 -0.002 0.978 -0.036c0.802,-0.026 1.606,-0.046 2.411,-0.059 0.805,-0.013 1.611,-0.02 2.418,-0.02 1.109,0 2.215,0.016 3.317,0.043 0.33,0.007 0.66,0.017 0.989,0.026l0.069 0.003 0.069 0.001c0.567,0.017 1.131,0.042 1.695,0.066l0.03 0.001 0.03 0.001 0.03 0.002 0.029 0.001 0.03 0.001c0.681,0.029 1.362,0.06 2.041,0.099l0.034 0.001 0.035 0.003 0.034 0.002 0.139 0.007c0.851,0.048 1.7,0.102 2.545,0.163l0.183 0.014 0.021 0.002c0.155,0.011 0.308,0.026 0.462,0.038 36.011,2.801 67.189,18.328 90.425,41.333 1.158,1.135 2.295,2.291 3.415,3.464l0.16 0.168c0.724,0.761 1.439,1.53 2.146,2.306l0.258 0.282c0.675,0.745 1.342,1.496 2.002,2.255 0.175,0.2 0.348,0.403 0.522,0.605 0.527,0.612 1.049,1.229 1.565,1.85 0.288,0.345 0.573,0.693 0.858,1.04 0.4,0.491 0.797,0.984 1.191,1.479 0.377,0.474 0.752,0.95 1.123,1.428 0.32,0.412 0.637,0.826 0.952,1.241 0.55,0.725 1.092,1.455 1.629,2.19l0.123 0.169c14.273,19.597 23.794,42.862 26.86,68.089 0.942,7.412 1.323,14.934 1.091,22.51l82.446 0 0 -100.132c-39.606,-4.982 -70.36,-38.888 -70.36,-79.829 0,-11.092 2.259,-21.667 6.339,-31.292 0.254,-0.597 0.514,-1.192 0.781,-1.783l0.005 -0.01c0.267,-0.59 0.541,-1.176 0.823,-1.76l0.004 -0.009c11.617,-24.07 34.872,-41.513 62.408,-44.976l0 -100.125 -527.767 0 0 153.828c8.766,-0.387 17.489,-0.1 26.103,0.823l0.552 0.058c0.805,0.089 1.609,0.181 2.411,0.281 0.916,0.112 1.83,0.232 2.742,0.358l0.464 0.064c34.285,4.815 65.53,19.616 90.463,41.603 20.285,17.811 36.633,40.603 46.923,67.41 0.111,0.289 0.223,0.578 0.333,0.868 0.289,0.763 0.571,1.53 0.85,2.3 0.219,0.605 0.435,1.213 0.648,1.821 0.203,0.579 0.404,1.159 0.601,1.742 0.306,0.901 0.599,1.807 0.891,2.715 0.112,0.351 0.227,0.701 0.339,1.054 0.418,1.326 0.819,2.66 1.204,4.002 5.352,-8.76 11.575,-16.863 18.531,-24.212l0.033 -0.034c0.627,-0.661 1.259,-1.316 1.897,-1.965l0.089 -0.09c0.62,-0.629 1.245,-1.253 1.876,-1.871l0.145 -0.14c0.61,-0.596 1.225,-1.187 1.845,-1.771l0.222 -0.208c0.601,-0.564 1.206,-1.123 1.815,-1.676l0.269 -0.242c0.595,-0.537 1.194,-1.07 1.797,-1.597l0.315 -0.274c0.596,-0.518 1.197,-1.032 1.801,-1.54l0.327 -0.273c0.599,-0.5 1.201,-0.996 1.808,-1.487l0.374 -0.3c0.591,-0.475 1.185,-0.945 1.783,-1.411l0.433 -0.335c0.596,-0.46 1.195,-0.915 1.798,-1.366l0.404 -0.301c0.601,-0.447 1.206,-0.889 1.814,-1.326l0.458 -0.328c0.609,-0.434 1.219,-0.862 1.834,-1.286l0.428 -0.295c0.617,-0.423 1.238,-0.841 1.862,-1.254l0.474 -0.313c0.619,-0.407 1.242,-0.809 1.867,-1.206l0.475 -0.302c0.625,-0.394 1.253,-0.782 1.884,-1.166l0.493 -0.3c0.633,-0.382 1.27,-0.759 1.909,-1.132l0.475 -0.278c0.647,-0.374 1.296,-0.741 1.949,-1.106l0.475 -0.265c0.658,-0.364 1.32,-0.722 1.983,-1.076l0.462 -0.246c0.667,-0.353 1.338,-0.699 2.011,-1.042l0.473 -0.241c0.675,-0.341 1.353,-0.675 2.033,-1.005l0.47 -0.228c0.682,-0.328 1.369,-0.65 2.057,-0.967l0.52 -0.24c0.396,-0.182 0.793,-0.361 1.192,-0.539l0 0c0.352,-0.158 0.706,-0.314 1.06,-0.468l0.033 -0.015 0.196 -0.085 0.003 -0.002 0.034 -0.014 0.798 -0.344 0 0c0.5,-0.214 1.002,-0.424 1.504,-0.632l0.033 -0.014 0.034 -0.014 0.168 -0.069 0.033 -0.014 0.369 -0.151 0 -0.001c0.66,-0.27 1.323,-0.534 1.988,-0.794l0.033 -0.014zm53.249 48.54c-48.256,0 -87.519,39.268 -87.519,87.517 0,48.259 39.263,87.524 87.519,87.524 48.264,0 87.525,-39.265 87.525,-87.524 0,-48.249 -39.261,-87.517 -87.525,-87.517zm0 195.24c-59.397,0 -107.723,-48.319 -107.723,-107.717 0,-59.397 48.326,-107.721 107.723,-107.721 59.405,0 107.73,48.324 107.73,107.721 0,59.398 -48.325,107.717 -107.73,107.717l0 0zm-287.365 -633.68c-18.699,0 -18.695,28.404 0,28.404 18.685,0 18.688,-28.404 0,-28.404zm71.124 -91.845c-18.685,0 -18.685,28.392 0,28.392 18.687,0 18.687,-28.392 0,-28.392zm55.896 -77.922c-18.69,0 -18.683,28.409 0,28.409 18.686,0 18.688,-28.409 0,-28.409zm377.045 169.767c-18.683,0 -18.677,28.404 0,28.404 18.688,0 18.694,-28.404 0,-28.404zm-127.023 -169.767c-18.692,0 -18.685,28.409 0,28.409 18.67,0 18.696,-28.409 0,-28.409zm-125.854 140.218c-15.712,0 -15.712,23.896 0,23.896 15.718,0 15.724,-23.896 0,-23.896zm83.181 27.757c-15.718,0 -15.718,23.896 0,23.896 15.711,0 15.718,-23.896 0,-23.896zm-166.367 0c-15.723,0 -15.725,23.896 0,23.896 15.732,0 15.738,-23.896 0,-23.896zm358.013 552.751l-94.625 0c-2.289,13.123 -6.45,26.239 -12.7,39.035l127.071 0c16.215,0 29.386,-13.183 29.386,-29.386l0 -129.354 -39.035 0 0 109.593c0.006,5.583 -4.526,10.112 -10.097,10.112l0 0zm-528.099 -206.195c-0.754,-0.008 -1.508,-0.016 -2.264,-0.014 -0.316,0 -0.631,0.006 -0.947,0.007 -5.141,0.047 -10.339,0.343 -15.583,0.904 -0.195,0.021 -0.389,0.036 -0.583,0.046 -45.948,5.145 -85.829,30.651 -110.389,67.261l22.531 13.01c23.036,-33.369 61.535,-55.282 105.061,-55.282 19.619,0 38.216,4.456 54.839,12.403l13.004 -22.522c-3.427,-1.695 -6.925,-3.265 -10.489,-4.706 -0.406,-0.163 -0.811,-0.328 -1.218,-0.487 -0.565,-0.223 -1.133,-0.442 -1.701,-0.658 -1.195,-0.452 -2.393,-0.896 -3.6,-1.319l-0.079 -0.028c-7.11,-2.486 -14.409,-4.458 -21.834,-5.894l-0.454 -0.086c-1.111,-0.211 -2.226,-0.404 -3.341,-0.591 -0.871,-0.144 -1.744,-0.281 -2.62,-0.411l-0.242 -0.035c-6.572,-0.96 -13.278,-1.503 -20.091,-1.598zm-29.975 -18.007l0.003 -166.02c0,-5.575 4.522,-10.104 10.099,-10.104l547.96 0c5.577,0 10.109,4.529 10.109,10.104l0 109.595 39.035 0 0 -129.343c0,-16.206 -13.182,-29.388 -29.38,-29.388l-587.464 0c-16.214,0 -29.394,13.187 -29.394,29.388l0 196.902c0.574,-0.239 1.15,-0.458 1.725,-0.69 0.716,-0.291 1.433,-0.582 2.155,-0.863 0.526,-0.205 1.054,-0.403 1.582,-0.602 0.973,-0.369 1.949,-0.73 2.93,-1.082 0.417,-0.149 0.834,-0.296 1.253,-0.442 1.054,-0.369 2.114,-0.727 3.178,-1.076 0.401,-0.131 0.801,-0.263 1.203,-0.391 1.034,-0.332 2.073,-0.65 3.116,-0.962 0.457,-0.137 0.915,-0.276 1.373,-0.409 0.918,-0.267 1.842,-0.521 2.766,-0.772 0.589,-0.161 1.178,-0.325 1.767,-0.48 0.644,-0.168 1.293,-0.325 1.94,-0.485 4.671,-1.165 9.355,-2.117 14.044,-2.88zm516.736 67.816c0.236,0.223 0.473,0.446 0.713,0.665l0.38 0.342c0.206,0.186 0.413,0.37 0.621,0.552l0.339 0.296c0.264,0.227 0.53,0.451 0.797,0.674l0.317 0.263c0.292,0.24 0.586,0.477 0.883,0.712l0.293 0.228c0.293,0.229 0.587,0.456 0.885,0.68l0.093 0.07 0.018 0.014 0.018 0.013c0.371,0.277 0.746,0.551 1.123,0.819l0.012 0.009 0.018 0.013c0.372,0.264 0.746,0.524 1.124,0.78l0.019 0.013 0.018 0.012 -7.671 -6.155zm8.904 6.967c0.39,0.249 0.783,0.495 1.178,0.736l0.076 0.046c0.401,0.243 0.804,0.482 1.209,0.716l0.001 0 -2.464 -1.498zm3.771 2.229c0.414,0.224 0.83,0.445 1.249,0.66l0.009 0.004c0.431,0.221 0.865,0.437 1.302,0.648l0 0 -2.56 -1.312zm3.894 1.936c0.431,0.195 0.866,0.385 1.303,0.571l0.071 0.03c0.437,0.185 0.877,0.365 1.319,0.54l0 0 -2.693 -1.141zm4.081 1.669c0.449,0.165 0.901,0.324 1.355,0.478l0.056 0.019c0.456,0.155 0.913,0.304 1.373,0.447l0.001 0 -2.785 -0.944zm4.224 1.373c0.456,0.13 0.913,0.254 1.373,0.373l0.101 0.026c0.462,0.118 0.926,0.232 1.392,0.34l0 0 -2.866 -0.739zm4.372 1.067c0.459,0.094 0.921,0.183 1.384,0.266l0.111 0.02c0.473,0.084 0.948,0.163 1.425,0.236l-2.92 -0.522zm4.455 0.737c0.484,0.062 0.971,0.117 1.459,0.167l0.038 0.004c0.499,0.051 0.998,0.095 1.501,0.134l0 0 -2.998 -0.305zm4.574 0.404c0.483,0.024 0.968,0.042 1.454,0.055l0.101 0.003c0.497,0.012 0.996,0.019 1.496,0.019l59.252 0c0.14,0 0.28,0.004 0.419,0.009l26.498 0 0 -120.49 -86.157 0c-33.211,0 -60.239,27.025 -60.239,60.242 0,14.789 5.358,28.352 14.234,38.849l0.01 0.012c0.357,0.422 0.719,0.839 1.088,1.251l0.043 0.048c0.184,0.206 0.369,0.41 0.556,0.613l0.09 0.097c0.326,0.352 0.656,0.7 0.99,1.044l0.258 0.265c0.262,0.267 0.527,0.531 0.793,0.793l0.375 0.366c0.154,0.148 0.308,0.296 0.464,0.442l38.275 16.382zm5.531 -85.849c-33.804,0 -33.792,51.373 0,51.373 33.81,0 33.817,-51.373 0,-51.373zm0 71.579c-60.397,0 -60.403,-91.791 0,-91.791 60.416,0 60.404,91.791 0,91.791l0 0zm-34.947 4.825l0.045 0.03 -0.045 -0.03zm3.737 2.216l0.079 0.043 -0.079 -0.043zm3.954 1.97l0.019 0.009 -0.019 -0.009zm4.07 1.667l0.03 0.011 -0.03 -0.011zm4.213 1.372l0.041 0.012 -0.041 -0.012zm4.311 1.058l0.102 0.021 -0.102 -0.021zm4.475 0.747l0.082 0.011 -0.082 -0.011zm4.557 0.41l0.099 0.005 -0.099 -0.005zm-642.405 32.724c-7.258,-3.95 -15.905,-9.109 -22.497,-13.075 -10.079,20.433 -15.754,43.414 -15.754,67.699 0,53.113 27.111,100.007 68.216,127.586l13.014 -22.539c-33.364,-23.036 -55.275,-61.531 -55.275,-105.056 0,-19.531 4.417,-38.049 12.296,-54.615zm60.454 169.801l-13.011 22.532c20.472,10.129 43.507,15.831 67.851,15.831 53.022,0 99.846,-27.013 127.443,-67.999 -7.37,-4.041 -16.022,-9.219 -22.48,-13.107 -23.045,33.292 -61.496,55.144 -104.963,55.144l0 0c-19.62,0 -38.219,-4.454 -54.84,-12.401z"/>
  </g>
</svg>