<?xml version="1.0" encoding="utf-8"?>
<svg viewBox="32.924 61.452 894.152 837.095" width="894.152" height="837.095" xmlns="http://www.w3.org/2000/svg"
     xmlns:xlink="http://www.w3.org/1999/xlink">
    <defs>
        <linearGradient id="id41" gradientUnits="userSpaceOnUse" x1="180.534" y1="286.025" x2="180.534" y2="132.426">
            <stop offset="0" style="stop-opacity:1; stop-color:#1D20E5"/>
            <stop offset="1" style="stop-opacity:1; stop-color:#07A9F6"/>
        </linearGradient>
        <linearGradient id="id43" gradientUnits="userSpaceOnUse" x1="486.58" y1="285.956" x2="486.58" y2="130.345"
                        xlink:href="#id40"/>
        <linearGradient id="id40" gradientUnits="userSpaceOnUse" x1="782.214" y1="820.585" x2="782.214" y2="664.905">
            <stop offset="0" style="stop-opacity:1; stop-color:#6461FF"/>
            <stop offset="1" style="stop-opacity:1; stop-color:#E204FF"/>
        </linearGradient>
        <linearGradient id="id44" gradientUnits="userSpaceOnUse" x1="786.854" y1="283.945" x2="786.854" y2="132.426"
                        xlink:href="#id42"/>
        <linearGradient id="id42" gradientUnits="userSpaceOnUse" x1="486.386" y1="554.105" x2="486.386" y2="398.495">
            <stop offset="0" style="stop-opacity:1; stop-color:#FF618D"/>
            <stop offset="1" style="stop-opacity:1; stop-color:#FF9B04"/>
        </linearGradient>
        <linearGradient id="id48" gradientUnits="userSpaceOnUse" x1="786.294" y1="554.836" x2="786.294" y2="397.625">
            <stop offset="0" style="stop-opacity:1; stop-color:#1C29E6"/>
            <stop offset="1" style="stop-opacity:1; stop-color:#07A9F6"/>
        </linearGradient>
        <linearGradient id="id47" gradientUnits="userSpaceOnUse" x1="182.535" y1="553.305" x2="182.535" y2="397.625">
            <stop offset="0" style="stop-opacity:1; stop-color:#6161FF"/>
            <stop offset="1" style="stop-opacity:1; stop-color:#E204FF"/>
        </linearGradient>
        <linearGradient id="id46" gradientUnits="userSpaceOnUse" x1="166.89" y1="818.505" x2="166.89" y2="664.905">
            <stop offset="0" style="stop-opacity:1; stop-color:#FF618A"/>
            <stop offset="1" style="stop-opacity:1; stop-color:#FF9B04"/>
        </linearGradient>
        <linearGradient id="id45" gradientUnits="userSpaceOnUse" x1="475.929" y1="818.505" x2="475.929" y2="664.905">
            <stop offset="0" style="stop-opacity:1; stop-color:#1E1EE5"/>
            <stop offset="1" style="stop-opacity:1; stop-color:#07A9F6"/>
        </linearGradient>
        <style type="text/css">

            .fil40 {fill:#F3F5F6;fill-rule:nonzero}
            .fil49 {fill:url(#id40);fill-rule:nonzero}
            .fil41 {fill:url(#id41);fill-rule:nonzero}
            .fil45 {fill:url(#id42);fill-rule:nonzero}
            .fil42 {fill:url(#id43);fill-rule:nonzero}
            .fil43 {fill:url(#id44);fill-rule:nonzero}
            .fil48 {fill:url(#id45);fill-rule:nonzero}
            .fil47 {fill:url(#id46);fill-rule:nonzero}
            .fil46 {fill:url(#id47);fill-rule:nonzero}
            .fil44 {fill:url(#id48);fill-rule:nonzero}

        </style>
    </defs>
    <g id="Layer_x0004_1">
        <g id="Layer_x0004_1_0">
            <path class="fil40"
                  d="M778.592 601.579c82.005,0 148.484,66.479 148.484,148.484 0,82.005 -66.479,148.484 -148.484,148.484 -82.005,0 -148.484,-66.479 -148.484,-148.484 0,-82.005 66.479,-148.484 148.484,-148.484z"/>
            <path class="fil40"
                  d="M181.408 326.88c82.005,0 148.484,66.48 148.484,148.484 0,82.005 -66.479,148.484 -148.484,148.484 -82.005,0 -148.484,-66.479 -148.484,-148.484 0,-82.004 66.479,-148.484 148.484,-148.484z"/>
            <path class="fil40"
                  d="M491.712 61.452c82.005,0 148.484,66.479 148.484,148.484 0,82.005 -66.479,148.484 -148.484,148.484 -82.005,0 -148.484,-66.479 -148.484,-148.484 0,-82.005 66.479,-148.484 148.484,-148.484z"/>
            <path class="fil41"
                  d="M141.017 132.452l-33.966 0 -37.368 23.234 0 31.673 33.861 -20.698 0.902 0 0 117.349 36.571 0 0 -151.558 0 0zm91.58 153.642c35.32,0 58.831,-22.227 58.831,-53.448 0,-28.86 -20.108,-49.42 -47.37,-49.42 -14.344,0 -26.256,6.147 -31.291,14.517l-0.869 0 3.473 -35.771 67.097 0 0 -29.52 -97.207 0 -6.598 81.718 32.333 6.043c4.063,-6.807 12.503,-11.009 21.393,-10.94 13.891,0 23.824,9.828 23.754,24.415 0.07,14.517 -9.689,24.275 -23.546,24.275 -11.773,0 -21.462,-7.327 -21.983,-18.511l-35.493 0c0.417,27.228 24.345,46.642 57.476,46.642z"/>
            <path class="fil42"
                  d="M445.817 132.452l-33.966 0 -37.368 23.234 0 31.673 33.861 -20.698 0.902 0 0 117.349 36.571 0 0 -151.558 0 0zm94.324 153.642c34.764,0.07 58.761,-21.775 58.692,-53.517 0.069,-28.027 -19.101,-48.448 -46.259,-48.448 -16.948,0 -32.194,8.196 -38.48,21.81l-0.972 0c0.173,-27.019 9.203,-44.314 27.748,-44.314 10.072,0 18.059,5.036 20.213,14.656l36.048 0c-2.813,-25.456 -24.414,-45.877 -56.261,-45.877 -38.619,0 -63.693,30.388 -63.832,80.432 -0.104,55.254 29.797,75.188 63.103,75.258l0 0zm-0.209 -28.131c-13.405,0 -23.337,-10.523 -23.407,-24.136 0.173,-13.683 10.141,-24.172 23.477,-24.172 13.545,0 23.372,10.349 23.303,24.102 0.069,13.857 -9.828,24.206 -23.373,24.206z"/>
            <path class="fil43"
                  d="M753.017 132.452l-33.966 0 -37.368 23.234 0 31.673 33.861 -20.698 0.902 0 0 117.349 36.571 0 0 -151.558 0 0zm40.008 151.558l37.681 0 61.331 -121.795 0 -29.763 -109.362 0 0 29.52 71.472 0 0 0.973 -61.122 121.065 0 0z"/>
            <path class="fil44"
                  d="M657.613 551.26l112.175 0 0 -29.52 -61.436 0 0 -0.973 18.129 -16.704c32.853,-28.651 41.466,-43.238 41.466,-60.603 0,-27.331 -22.296,-45.807 -56.712,-45.807 -33.514,0 -55.914,19.309 -55.845,50.149l34.695 0c0,-13.683 8.439,-21.602 21.011,-21.602 12.363,0 21.323,7.64 21.323,20.143 0,11.322 -7.119,18.997 -19.552,30.18l-55.254 48.377 0 26.36zm195.629 3.716c39.696,0.069 64.04,-29.242 64.11,-79.253 0.07,-49.731 -24.414,-78.07 -64.11,-78.07 -39.661,0 -63.901,28.269 -64.006,78.07 -0.138,49.872 24.345,79.253 64.006,79.253zm0 -29.972c-15.732,0 -26.464,-15.836 -26.324,-49.281 0.069,-32.784 10.661,-48.342 26.324,-48.342 15.767,0 26.36,15.559 26.429,48.342 0.069,33.445 -10.592,49.281 -26.429,49.281z"/>
            <path class="fil45"
                  d="M445.297 400.502l-33.966 0 -37.368 23.234 0 31.673 33.861 -20.699 0.902 0 0 117.35 36.571 0 0 -151.558 0 0zm90.642 -2.049c-34.937,-0.069 -58.831,21.81 -58.692,53.205 0.07,27.887 19.101,48.169 46.26,48.169 16.912,0 32.159,-8.161 38.479,-21.775l0.868 0c-0.069,27.609 -9.168,44.87 -27.679,44.87 -10.21,0 -18.059,-5.036 -20.281,-15.177l-36.015 0c2.744,26.116 24.346,46.399 56.296,46.399 38.619,0 63.936,-30.424 63.798,-80.954 -0.07,-54.768 -29.832,-74.668 -63.034,-74.737zm0.209 28.095c13.406,0 23.234,10.593 23.373,23.825 0.069,13.336 -10.211,23.998 -23.512,23.998 -13.544,0 -23.164,-10.384 -23.234,-23.894 -0.173,-13.475 9.828,-23.929 23.373,-23.929l0 0z"/>
            <path class="fil46"
                  d="M141.297 399.702l-33.966 0 -37.368 23.234 0 31.672 33.861 -20.698 0.903 0 0 117.35 36.57 0 0 -151.558 0 0zm92.761 153.642c35.458,0 61.192,-18.442 61.192,-43.064 0,-18.823 -15.141,-34.07 -34.034,-37.022l0 -1.181c16.427,-3.09 28.408,-16.704 28.408,-33.444 0,-23.616 -23.511,-40.98 -55.567,-40.98 -32.019,0 -55.566,17.295 -55.566,40.98 0,16.74 11.704,30.354 28.409,33.444l0 1.181c-19.17,2.952 -34.034,18.199 -34.034,37.022 0,24.622 25.769,43.064 61.191,43.064l0.001 0zm0 -25.978c-13.44,0 -22.782,-8.439 -22.782,-20.074 0,-11.842 9.619,-20.351 22.782,-20.351 13.197,0 22.817,8.613 22.817,20.351 0,11.704 -9.412,20.074 -22.817,20.074zm0 -66.228c-11.53,0 -19.831,-7.78 -19.831,-18.511 0,-10.662 8.231,-18.128 19.831,-18.128 11.634,0 19.83,7.536 19.83,18.128 0,10.801 -8.334,18.511 -19.83,18.511z"/>
            <path class="fil47"
                  d="M66.509 818.573l112.175 0 0 -29.52 -61.436 0 0 -0.972 18.129 -16.705c32.854,-28.651 41.466,-43.237 41.466,-60.602 0,-27.331 -22.296,-45.807 -56.712,-45.807 -33.513,0 -55.914,19.309 -55.845,50.149l34.695 0c0,-13.684 8.439,-21.602 21.011,-21.602 12.363,0 21.323,7.64 21.323,20.142 0,11.322 -7.119,18.997 -19.552,30.18l-55.254 48.378 0 26.359zm203.061 -151.557l-33.965 0 -37.368 23.233 0 31.673 33.861 -20.698 0.902 0 0 117.349 36.57 0 0 -151.557 0 0z"/>
            <path class="fil48"
                  d="M354.509 818.573l112.175 0 0 -29.52 -61.436 0 0 -0.972 18.129 -16.705c32.854,-28.651 41.466,-43.237 41.466,-60.602 0,-27.331 -22.296,-45.807 -56.712,-45.807 -33.513,0 -55.914,19.309 -55.845,50.149l34.695 0c0,-13.684 8.439,-21.602 21.011,-21.602 12.363,0 21.323,7.64 21.323,20.142 0,11.322 -7.119,18.997 -19.552,30.18l-55.254 48.378 0 26.359zm132.977 0l112.176 0 0 -29.52 -61.436 0 0 -0.972 18.128 -16.705c32.854,-28.651 41.467,-43.237 41.467,-60.602 0,-27.331 -22.296,-45.807 -56.712,-45.807 -33.514,0 -55.914,19.309 -55.845,50.149l34.694 0c0,-13.684 8.44,-21.602 21.012,-21.602 12.363,0 21.323,7.64 21.323,20.142 0,11.322 -7.119,18.997 -19.552,30.18l-55.255 48.378 0 26.359z"/>
            <path class="fil49"
                  d="M657.709 818.573l112.175 0 0 -29.52 -61.436 0 0 -0.972 18.129 -16.705c32.853,-28.651 41.466,-43.237 41.466,-60.602 0,-27.331 -22.296,-45.807 -56.712,-45.807 -33.514,0 -55.914,19.309 -55.845,50.149l34.695 0c0,-13.684 8.439,-21.602 21.011,-21.602 12.363,0 21.323,7.64 21.323,20.142 0,11.322 -7.119,18.997 -19.552,30.18l-55.254 48.378 0 26.359zm190.628 2.084c35.493,0 60.741,-18.823 60.672,-45.148 0.069,-18.65 -12.155,-31.985 -35.528,-34.694l0 -1.181c17.538,-2.535 29.971,-14.308 29.901,-31.326 0.07,-24.692 -22.296,-43.341 -54.767,-43.341 -32.715,0 -56.539,18.927 -56.816,45.877l35.006 0c0.278,-10.385 9.62,-17.33 21.81,-17.33 11.634,0 19.552,7.05 19.448,17.156 0.104,10.523 -9.238,17.782 -22.713,17.782l-14.725 0 0 26.046 14.725 0c15.316,0 25.318,7.536 25.179,18.198 0.139,10.732 -9.03,18.198 -22.053,18.198 -12.954,0 -22.505,-6.876 -22.887,-16.879l-36.847 0c0.312,27.402 24.935,46.642 59.595,46.642z"/>
        </g>
    </g>
</svg>