<?xml version="1.0" encoding="utf-8"?>
<svg viewBox="7.939 263.887 778.119 595.167" width="778.119" height="595.167" xmlns="http://www.w3.org/2000/svg">
  <defs>
    <linearGradient id="id0" gradientUnits="userSpaceOnUse" x1="7.939" y1="561.471" x2="786.058" y2="561.471">
      <stop offset="0" style="stop-opacity:1; stop-color:#00A2FF"/>
      <stop offset="0.502" style="stop-opacity:1; stop-color:#FF00D2"/>
      <stop offset="1" style="stop-opacity:1; stop-color:#FEBA0F"/>
    </linearGradient>
    <style type="text/css">
   
    .fil0 {fill:url(#id0);fill-rule:nonzero}
   
  </style>
  </defs>
  <g id="Слой_x0020_1">
    <g id="_1914608014592">
      <g>
        <path class="fil0" d="M702.134 266.731c-4.581,1.524 -10.838,3.97 -13.736,5.343 -2.898,1.525 -101.338,98.591 -218.556,215.81l-213.364 213.204 -73.564 -73.413c-86.078,-85.617 -81.504,-82.258 -109.588,-82.258 -14.808,0 -16.785,0.301 -26.401,4.883 -35.563,16.944 -49.299,57.843 -30.68,92.032 5.344,9.767 200.239,204.519 209.243,208.941 9.004,4.431 22.589,7.782 31.895,7.782 9.465,0 23.812,-4.272 32.967,-9.616 3.66,-2.136 114.161,-111.565 245.727,-243.281 173.997,-174.291 239.931,-241.138 242.519,-246.18 12.974,-26.099 8.854,-54.635 -10.989,-75.549 -16.936,-17.857 -43.034,-25.027 -65.473,-17.698z"/>
      </g>
    </g>
  </g>
</svg>