<?xml version="1.0" encoding="utf-8"?>
<svg viewBox="9370.684 8193.173 389.348 198.888" width="389.348" height="198.888" xmlns="http://www.w3.org/2000/svg">
    <defs>
        <linearGradient id="id2" gradientUnits="userSpaceOnUse" x1="9370.68" y1="9297.19" x2="13693.17" y2="9297.19">
            <stop offset="0" style="stop-opacity:1; stop-color:#00A2FF"/>
            <stop offset="0.502" style="stop-opacity:1; stop-color:#FF00D2"/>
            <stop offset="1" style="stop-opacity:1; stop-color:#FEBA0F"/>
        </linearGradient>
        <style type="text/css">

            .fil2 {fill:url(#id2);fill-rule:nonzero}

        </style>
    </defs>
    <g id="Layer_x0002_1" style="" transform="matrix(0.090075, 0, 0, 0.090075, 8526.620371, 7455.173562)">
        <path class="fil2"
              d="M9370.68 8322.43l186.97 0 0 494.88 146.76 0 0 -494.88 186.69 0 0 -120.93 -520.42 0 0 120.93zm593.38 494.88l148.87 0 0 -210.82 76.34 0 112.47 210.82 162.42 0 -127.85 -234.53c67.59,-30.62 106.68,-91.16 106.68,-176.25 0,-126.57 -86.22,-205.03 -224.51,-205.03l-254.42 0 0 615.81zm148.87 -328.08l0 -167.79 73.38 0c66.74,0 102.44,28.08 102.44,85.09 0,57.15 -35.7,82.7 -102.44,82.7l-73.38 0zm353.91 -287.73l225.21 410.21 0 205.6 147.88 0 0 -205.6 225.22 -410.21 -166.23 0 -130.25 257.67 -5.36 0 -130.24 -257.67 -166.23 0zm812.38 0l225.21 410.21 0 205.6 147.88 0 0 -205.6 225.22 -410.21 -166.23 0 -130.25 257.67 -5.36 0 -130.24 -257.67 -166.23 0zm1201.71 307.9c0,-203.48 -128.7,-316.23 -294.08,-316.23 -165.95,0 -293.8,112.75 -293.8,316.23 0,202.64 127.85,316.38 293.8,316.38 165.38,0 294.08,-112.75 294.08,-316.38zm-152.12 0c0,120.65 -52.92,185.85 -141.96,185.85 -88.62,0 -141.96,-65.2 -141.96,-185.85 0,-120.51 53.34,-185.84 141.96,-185.84 89.04,0 141.96,65.33 141.96,185.84zm611.15 -307.9l0 384.25c0,64.06 -45.44,110.06 -111.76,110.06 -66.74,0 -111.9,-46 -111.9,-110.06l0 -384.25 -148.87 0 0 397.23c0,137.72 104,226.34 260.77,226.34 155.37,0 260.35,-88.62 260.35,-226.34l0 -397.23 -148.59 0zm241.73 615.81l148.87 0 0 -210.82 76.34 0 112.47 210.82 162.42 0 -127.85 -234.53c67.59,-30.62 106.68,-91.16 106.68,-176.25 0,-126.57 -86.22,-205.03 -224.51,-205.03l-254.42 0 0 615.81zm148.87 -328.08l0 -167.79 73.38 0c66.74,0 102.44,28.08 102.44,85.09 0,57.15 -35.7,82.7 -102.44,82.7l-73.38 0zm-3911.73 1896.09l759.36 0 0 -226.75 -480.22 0 0 -927.89 -279.14 0 0 1154.64zm1602.05 -1154.64l0 720.46c0,120.12 -85.19,206.37 -209.55,206.37 -125.15,0 -209.81,-86.25 -209.81,-206.37l0 -720.46 -279.14 0 0 744.8c0,258.23 195,424.39 488.95,424.39 291.31,0 488.16,-166.16 488.16,-424.39l0 -744.8 -278.61 0zm1501.25 418.3c-28.05,-276.22 -233.89,-433.91 -513.03,-433.91 -307.71,0 -547.42,211.4 -547.42,592.93 0,379.94 234.15,593.2 547.42,593.2 316.97,0 492.13,-215.38 513.03,-420.16l-281.78 -1.59c-19.85,111.12 -103.19,177.01 -225.43,177.01 -164.83,0 -268.55,-119.07 -268.55,-348.46 0,-220.4 101.6,-348.46 270.14,-348.46 126.73,0 209.81,74.09 223.84,189.44l281.78 0zm159.01 736.34l279.14 0 0 -313 111.65 -140.76 287.34 453.76 333.9 0 -416.71 -639.23 409.31 -515.41 -328.62 0 -381.79 488.42 -15.08 0 0 -488.42 -279.14 0 0 1154.64z"/>
    </g>
</svg>