<?xml version="1.0" encoding="utf-8"?>
<svg viewBox="7390.266 6533.158 685.468 303.298" width="685.468" height="303.298" xmlns="http://www.w3.org/2000/svg">
    <defs>
        <linearGradient id="id1" gradientUnits="userSpaceOnUse" x1="7390.27" y1="8174.94" x2="14811.24" y2="8174.94">
            <stop offset="0" style="stop-opacity:1; stop-color:#00A2FF"/>
            <stop offset="0.502" style="stop-opacity:1; stop-color:#FF00D2"/>
            <stop offset="1" style="stop-opacity:1; stop-color:#FEBA0F"/>
        </linearGradient>
        <style type="text/css">

            .fil1 {fill:url(#id1);fill-rule:nonzero}

        </style>
    </defs>
    <g id="Layer_x0001_1" style="" transform="matrix(0.092369, 0, 0, 0.092369, 6707.634477, 5929.696466)">
        <path class="fil1"
              d="M7437.22 6696.71l0 615.81 126.01 0 245.39 -355.32 3.81 0 0 355.32 148.88 0 0 -615.81 -128.13 0 -242.29 354.89 -5.08 0 0 -354.89 -148.59 0zm1176.16 223.1c-14.96,-147.32 -124.74,-231.43 -273.62,-231.43 -164.11,0 -291.96,112.75 -291.96,316.23 0,202.64 124.89,316.38 291.96,316.38 169.06,0 262.47,-114.87 273.62,-224.09l-150.28 -0.85c-10.59,59.27 -55.04,94.41 -120.23,94.41 -87.91,0 -143.23,-63.5 -143.23,-185.85 0,-117.54 54.19,-185.84 144.08,-185.84 67.59,0 111.9,39.51 119.38,101.04l150.28 0zm629.36 -223.1l-521.98 0 0 615.81 146.76 0 0 -496.71 228.46 0 0 496.71 146.76 0 0 -615.81zm266.98 217.17l0 -217.17 -148.45 0 0 615.81 230.01 0c150.57,0 247.65,-82.41 247.65,-201.79 0,-119.66 -97.08,-196.85 -247.65,-196.85l-81.56 0zm524.65 -217.17l-148.73 0 0 615.81 148.73 0 0 -615.81zm-524.65 332.6l81.56 0c64.91,0 100.33,34.85 100.05,80.29 0.28,47.41 -35.14,85.09 -100.05,85.09l-81.56 0 0 -165.38zm597.47 -211.67l186.97 0 0 494.88 146.76 0 0 -494.88 186.69 0 0 -120.93 -520.42 0 0 120.93zm649.68 494.88l40.64 -129.26 212.51 0 40.64 129.26 159.88 0 -207.72 -615.81 -198.12 0 -207.71 615.81 159.88 0zm76.06 -242.29l68.29 -218.3 4.8 0 68.58 218.3 -141.67 0zm444.08 -373.52l0 615.81 126.01 0 245.39 -355.32 3.81 0 0 355.32 148.88 0 0 -615.81 -128.13 0 -242.29 354.89 -5.08 0 0 -354.89 -148.59 0zm322.72 -163.55c-0.42,27.38 -17.22,52.35 -60.26,52.35 -44.16,0 -60.67,-25.82 -60.39,-52.35l-95.96 0c-0.28,75.5 60.26,125.17 156.35,125.17 96.24,0 156.64,-49.67 157.06,-125.17l-96.8 0zm1035.62 386.65c-14.96,-147.32 -124.74,-231.43 -273.62,-231.43 -164.11,0 -291.96,112.75 -291.96,316.23 0,202.64 124.89,316.38 291.96,316.38 169.06,0 262.47,-114.87 273.62,-224.09l-150.28 -0.85c-10.59,59.27 -55.04,94.41 -120.23,94.41 -87.91,0 -143.23,-63.5 -143.23,-185.85 0,-117.54 54.19,-185.84 144.08,-185.84 67.59,0 111.9,39.51 119.38,101.04l150.28 0zm84.81 392.71l276.29 0c136.32,0 214.49,-72.81 214.49,-172.3 0,-89.04 -64.77,-144.92 -139.27,-148.16l0 -6.07c67.59,-14.11 115.14,-63.08 115.14,-133.49 0,-92.86 -71.54,-155.79 -209.83,-155.79l-256.82 0 0 615.81zm148.87 -119.94l0 -146.76 94.69 0c56.86,0 91.72,30.06 91.72,77.33 0,43.6 -30.06,69.43 -94.41,69.43l-92 0zm0 -242.72l0 -134.9 84.81 0c49.53,0 81.14,25.54 81.14,66.46 0,43.18 -34.86,68.44 -83.54,68.44l-82.41 0zm994.56 54.75c0,-203.48 -128.7,-316.23 -294.08,-316.23 -165.95,0 -293.8,112.75 -293.8,316.23 0,202.64 127.85,316.38 293.8,316.38 165.38,0 294.08,-112.75 294.08,-316.38zm-152.12 0c0,120.65 -52.92,185.85 -141.96,185.85 -88.62,0 -141.96,-65.2 -141.96,-185.85 0,-120.51 53.34,-185.84 141.96,-185.84 89.04,0 141.96,65.33 141.96,185.84zm387.49 -307.9l-148.87 0 0 615.81 148.87 0 0 -238.76 89.61 0c25.82,159.03 142.24,247.23 288.29,247.23 165.38,0 294.07,-112.75 294.07,-316.38 0,-203.48 -128.69,-316.23 -294.07,-316.23 -153.67,0 -274.47,96.52 -291.68,272.07l-86.22 0 0 -263.74zm519.86 307.9c0,120.65 -52.92,185.85 -141.96,185.85 -88.62,0 -141.82,-65.2 -141.82,-185.85 0,-120.51 53.2,-185.84 141.82,-185.84 89.04,0 141.96,65.33 141.96,185.84zm-6970.83 2480.31l114.28 0c245.66,0 352.9,-152.15 431.33,-323.75l502.7 -1158.9 -356.92 0 -261.41 657.2 -325.08 -657.2 -362.62 0 539.91 1030.55 -16.42 44.91c-28.49,92.16 -68.71,127.01 -190.7,127.01l-75.07 0 0 280.18zm1133.44 331.79l339.83 0 0 -351.9 831.82 0 0 351.22 339.83 0 0 -626.7 -156.85 0 0 -1187.06 -1000.72 0 -45.58 619.33c-26.47,369.66 -105.57,499.02 -207.78,567.73l-100.55 0 0 627.38zm506.06 -627.38c68.04,-114.96 123,-288.56 142.1,-567.73l22.79 -332.12 343.52 0 0 899.85 -508.41 0zm1483.33 275.48l96.52 -306.99 504.71 0 96.52 306.99 379.72 0 -493.33 -1462.54 -470.53 0 -493.33 1462.54 379.72 0zm180.64 -575.43l162.2 -518.46 11.4 0 162.87 518.46 -336.47 0zm1128.41 -887.11l0 465.84c0,336.14 241.97,490.31 611.29,490.31 44.24,0 167.57,-7.04 252.69,-19.78l0 526.17 344.19 0 0 -1462.54 -344.19 0 0 663.57c-81.44,10.72 -200.07,16.42 -252.69,16.42 -195.72,0 -269.45,-61.33 -269.45,-214.15l0 -465.84 -341.84 0zm1683.06 1482.65l114.28 0c245.66,0 352.9,-152.15 431.33,-323.75l502.7 -1158.9 -356.92 0 -261.41 657.2 -325.08 -657.2 -362.62 0 539.91 1030.55 -16.42 44.91c-28.49,92.16 -68.71,127.01 -190.7,127.01l-75.07 0 0 280.18z"/>
    </g>
</svg>