<?xml version="1.0" encoding="utf-8"?>
<svg viewBox="393.2 438.79 20046.602 20059.57" width="20046.602" height="20059.57" xmlns="http://www.w3.org/2000/svg">
    <defs>
        <linearGradient id="id22220" gradientUnits="userSpaceOnUse" x1="393.2" y1="10462.09" x2="20439.8" y2="10462.09"
                        gradientTransform="matrix(-0.001447, -0.998655, 0.999999, -0.001449, -13.711019, 20868.533611)">
            <stop offset="0" style="stop-opacity: 1; stop-color: rgb(255, 94, 107);"/>
            <stop offset="1" style="stop-opacity: 1; stop-color: rgb(255, 149, 14);"/>
        </linearGradient>
        <style type="text/css">

            .fil22225 {fill:#3E7BF4;fill-rule:nonzero}
            .fil22227 {fill:#CA22DB;fill-rule:nonzero}
            .fil22226 {fill:#D01EDA;fill-rule:nonzero}
            .fil22221 {fill:#F29B91;fill-rule:nonzero}
            .fil22223 {fill:#FEA821;fill-rule:nonzero}
            .fil22228 {fill:#FEB614;fill-rule:nonzero}
            .fil22222 {fill:#FFBDAE;fill-rule:nonzero}
            .fil22224 {fill:white;fill-rule:nonzero}
            .fil22220 {fill:url(#id22220);fill-rule:nonzero}

        </style>
    </defs>
    <g id="Слой_x0620_1">
        <path class="fil22220"
              d="M10416.51 438.79c-5535.7,0 -10023.31,4487.64 -10023.31,10023.31 0,5535.72 4487.61,10023.29 10023.31,10023.29 5535.64,0 10023.29,-4487.57 10023.29,-10023.29 0,-5535.67 -4487.65,-10023.31 -10023.29,-10023.31z"/>
        <path class="fil22221"
              d="M9980.52 6967.45c0,0 -508.28,62.54 -742.87,656.87 -234.62,594.32 -383.2,1188.65 -250.24,1321.57 132.91,132.95 742.9,211.16 742.9,211.16 0,0 703.78,-1626.55 250.21,-2189.6z"/>
        <path class="fil22222"
              d="M10755.09 5523.91c0,0 231.08,-564.77 706.03,-218.27 474.95,346.65 860.07,654.67 1052.61,937.14 192.54,282.31 949.91,1039.8 1296.48,1257.93 346.57,218.27 462.19,436.47 654.75,1476.25 192.43,1039.77 320.81,2015.35 500.59,2451.79 179.65,436.46 -12.92,860.07 -385.13,1270.83 -372.21,410.78 -2939.59,1925.51 -3003.76,3183.49 -64.21,1257.98 -201.7,2169.37 -201.7,2169.37l-4419.53 -64.16c0,0 -320.03,-1723.3 -153.07,-3254.02 149.21,-1367.91 996.11,-1968.11 1796.18,-3331.17 346.58,-590.48 949.9,-1052.62 1014.12,-2413.3 64.16,-1360.7 -192.56,-3375.98 603.32,-3504.36 0,0 317.19,-109.35 539.11,38.48z"/>
        <path class="fil22221"
              d="M11711.82 6336.51c-2.58,-5.4 -4.37,-9.66 -6.96,-14.91l6.96 14.91zm263.38 2971.71c147.5,-275.59 419.2,-404.05 611.2,-460.33 809.15,108.5 1723.49,559.7 1723.49,559.7 -424.6,-401.67 -1237.54,-620.2 -1579.58,-698.07 -111.12,-205.38 -200.38,-640.16 -252.25,-943.5 212.09,-41.73 983.45,-222.32 1335.28,-699.4 0,0 -785.49,377.29 -1382.98,393.99 -0.2,-1.66 -1.58,-10.83 -1.58,-10.83 -287.8,-267.75 -553.37,-766.54 -714.16,-1107.59 0.78,-0.14 758.65,-118.01 995.2,-559.1 0,0 -377.04,363.98 -1041.91,457.14 -68.38,-151.24 -111.29,-257.89 -111.29,-257.89 73.33,-1491.83 -801.41,-1609.27 -801.41,-1609.27 1008.33,469.48 711.57,1821.29 711.57,1821.29 0,0 32.59,391.24 32.59,915.93 0,524.61 8.34,1382.97 73.54,1627.56 65.21,244.58 334.12,725.56 334.12,725.56 699.62,-6.4 1827.02,530.88 1827.02,530.88 -505.45,-581.29 -1729.02,-683.61 -1758.85,-686.07z"/>
        <path class="fil22223"
              d="M11826.89 16092.64l0 4294.3c-456.71,72.38 -927.36,111.42 -1406.36,111.42 -1450.86,0 -2824.8,-240.3 -4033.41,-855.79l3.8 -3549.93 5435.97 0z"
              style="fill: rgb(255, 148, 17);"/>
        <path class="fil22224"
              d="M14272.96 2609.14l-7397.14 0c0,615.19 -498.71,1113.93 -1113.91,1113.93l0 3601.69c615.2,0 1113.91,498.75 1113.91,1113.92l7397.14 0c0,-615.17 498.75,-1113.92 1113.94,-1113.92l0 -3601.69c-615.19,0 -1113.94,-498.74 -1113.94,-1113.93z"/>
        <path class="fil22222"
              d="M 11907.03 9463.41 C 11907.03 9463.41 11656.41 8962.88 11587.66 8784.72 C 11518.92 8606.47 11499.91 7325.7 11488.5 7044.96 C 11477.08 6764.21 11492.91 5401.08 11488.37 5191.62 C 11479.04 4762.18 11162.45 3966.35 10215.98 4334.58 C 9269.49 4702.82 9535.99 6861 9618.18 7693.78 C 9700.39 8526.52 9542.811 9775.856 9542.811 9775.856 L 11907.03 9463.41 Z"/>
        <polygon class="fil22225"
                 points="7834.69,3009.41 7467.77,3009.41 7874.8,3508.74 7457.28,4008.07 7827.9,4008.07 8080.63,3689.3 8091.12,3689.3 8343.55,4008.07 8716.94,4008.07 8297.57,3508.74 8703.98,3009.41 8339.54,3009.41 8091.12,3324.98 8080.63,3324.98 "
                 style="fill: rgb(255, 153, 8);"/>
        <polygon class="fil22226"
                 points="9444.66,3014.41 9077.75,3014.41 9484.78,3513.74 9067.25,4013.07 9437.87,4013.07 9690.61,3694.3 9701.1,3694.3 9953.52,4013.07 10326.92,4013.07 9907.55,3513.74 10313.96,3014.41 9949.51,3014.41 9701.1,3329.98 9690.61,3329.98 "
                 style="fill: rgb(255, 153, 8);"/>
        <polygon class="fil22227"
                 points="11164.63,3009.41 10797.72,3009.41 11204.75,3508.74 10787.23,4008.07 11157.84,4008.07 11410.58,3689.3 11421.07,3689.3 11673.5,4008.07 12046.89,4008.07 11627.52,3508.74 12033.93,3009.41 11669.49,3009.41 11421.07,3324.98 11410.58,3324.98 "
                 style="fill: rgb(255, 153, 8);"/>
        <polygon class="fil22225"
                 points="12776.172 3000.426 12409.252 3000.426 12816.281 3499.756 12398.761 3999.086 12769.381 3999.086 13022.111 3680.316 13032.602 3680.316 13285.031 3999.086 13658.422 3999.086 13239.052 3499.756 13645.463 3000.426 13281.021 3000.426 13032.602 3315.996 13022.111 3315.996"
                 style="fill: rgb(255, 153, 8);"/>
    </g>
</svg>